<?xml version="1.0" encoding="UTF-8"?>
<svg id="Livello_2" data-name="Livello 2" xmlns="http://www.w3.org/2000/svg" viewBox="0 0 804.05 188.41">
  <defs>
    <style>
      .cls-1 {
        fill: #ffc300;
      }

      .cls-2 {
        fill: #08b082;
      }

      .cls-3 {
        fill: #2979ff;
      }

      .cls-4 {
        fill: #e04153;
      }

      .cls-5 {
        fill: #ab7ffb;
      }
    </style>
  </defs>
  <g id="Livello_1-2" data-name="Livello 1">
    <g>
      <path class="cls-3" d="M0,184.56V0h59.73c1.45,0,4.44.04,8.97.13,4.53.09,8.88.39,13.07.9,14.87,1.79,27.47,6.97,37.81,15.51s18.2,19.4,23.58,32.55,8.08,27.56,8.08,43.19-2.69,30.04-8.08,43.19c-5.38,13.16-13.24,24.02-23.58,32.56-10.34,8.54-22.94,13.71-37.81,15.51-4.19.52-8.55.81-13.07.9-4.53.09-7.52.13-8.97.13H0Z"/>
      <path class="cls-1" d="M332.22,0v115.35c0,14.79-3.16,27.64-9.48,38.58-6.32,10.94-15.12,19.42-26.4,25.45-11.28,6.02-24.35,9.03-39.22,9.03s-27.94-3.01-39.22-9.03c-11.28-6.02-20.08-14.5-26.4-25.45-6.33-10.94-9.49-23.79-9.49-38.58V.26"/>
      <path class="cls-4" d="M347.6,184.56L403.99,0h52.04l56.39,184.56h-164.83Z"/>
      <path class="cls-2" d="M535.5,184.56V0h31.27l61.01,122.53L688.79,0h31.27v184.56"/>
      <path class="cls-5" d="M758.51,184.56V0h45.55v184.56h-45.55Z"/>
    </g>
  </g>
</svg>