<?xml version="1.0" encoding="UTF-8"?>
<svg id="Livello_2" data-name="Livello 2" xmlns="http://www.w3.org/2000/svg" viewBox="0 0 804.05 404.3">
  <defs>
    <style>
      .cls-1 {
        fill: #ffc300;
      }

      .cls-2 {
        fill: #08b082;
      }

      .cls-3 {
        fill: #2979ff;
      }

      .cls-4 {
        fill: #e04153;
      }

      .cls-5 {
        fill: #0a0a0a;
      }

      .cls-6 {
        fill: #ab7ffb;
      }
    </style>
  </defs>
  <g id="Livello_1-2" data-name="Livello 1">
    <g>
      <g>
        <path class="cls-3" d="M0,184.56V0h59.73c1.45,0,4.44.04,8.97.13,4.53.09,8.88.39,13.07.9,14.87,1.79,27.47,6.97,37.81,15.51s18.2,19.4,23.58,32.55,8.08,27.56,8.08,43.19-2.69,30.04-8.08,43.19c-5.38,13.16-13.24,24.02-23.58,32.56-10.34,8.54-22.94,13.71-37.81,15.51-4.19.52-8.55.81-13.07.9-4.53.09-7.52.13-8.97.13H0Z"/>
        <path class="cls-1" d="M332.22,0v115.35c0,14.79-3.16,27.64-9.48,38.58-6.32,10.94-15.12,19.42-26.4,25.45-11.28,6.02-24.35,9.03-39.22,9.03s-27.94-3.01-39.22-9.03c-11.28-6.02-20.08-14.5-26.4-25.45-6.33-10.94-9.49-23.79-9.49-38.58V.26"/>
        <path class="cls-4" d="M347.6,184.56L403.99,0h52.04l56.39,184.56h-164.83Z"/>
        <path class="cls-2" d="M535.5,184.56V0h31.27l61.01,122.53L688.79,0h31.27v184.56"/>
        <path class="cls-6" d="M758.51,184.56V0h45.55v184.56h-45.55Z"/>
      </g>
      <path class="cls-5" d="M243.62,302.38c0-2.55-.28-5.23-.82-8.03-.49-2.86-1.28-5.6-2.38-8.22-1.09-2.62-2.56-4.84-4.38-6.67-1.7-1.7-3.71-3.13-6.02-4.29-2.25-1.22-4.6-1.95-7.03-2.19-.73-.12-1.49-.18-2.29-.18h-2.19c-2.38,0-4.75.03-7.12.09-2.31.06-4.66.12-7.03.18v56.17c0,1.83.61,3.01,1.83,3.56,1.22.54,2.58.82,4.11.82,2.44,0,4.93-.1,7.49-.28,2.62-.18,5.15-.61,7.58-1.28,2.49-.73,4.77-1.86,6.85-3.38,4.2-3.1,7.16-7,8.86-11.69,1.7-4.75,2.56-9.62,2.56-14.61ZM253.75,301.01c0,6.02-1.28,11.75-3.84,17.17-2.49,5.42-6.36,9.74-11.59,12.97-2.13,1.28-4.6,2.34-7.4,3.19-2.74.8-5.54,1.37-8.41,1.74-2.86.37-5.54.55-8.03.55-2.19,0-4.42-.06-6.67-.18-2.19-.12-4.41-.19-6.66-.19-1.77,0-3.56.03-5.39.1-1.83,0-3.62.06-5.39.18-.3.06-.61.09-.91.09h-.91c-.36,0-.58-.15-.64-.46-.06-.3-.1-.58-.1-.82,0-.42.3-.73.91-.91.67-.18,1.37-.33,2.1-.45.79-.12,1.34-.27,1.64-.46,1.03-.54,1.7-1.34,2.01-2.37.36-1.09.54-2.19.54-3.29v-9.95c.06-3.35.09-6.7.09-10.05v-28.31c0-2.31-.27-3.96-.82-4.93-.55-.97-2.07-1.46-4.57-1.46-.43,0-.85.03-1.28.09h-1.19c-.43,0-.82-.12-1.19-.36-.3-.3-.46-.67-.46-1.09,0-.98.49-1.46,1.46-1.46,1.4,0,2.8.06,4.2.18,1.4.06,2.77.1,4.11.1,4.5,0,9.01-.12,13.52-.37,4.57-.3,9.1-.45,13.6-.45,6.52,0,12.09,1.24,16.72,3.74,4.69,2.49,8.28,6.09,10.78,10.78,2.49,4.62,3.74,10.19,3.74,16.71ZM351.32,271.24c0,.61-.15.98-.46,1.09-.3.12-.7.19-1.19.19h-1.28c-.43-.06-.85-.09-1.28-.09-.85,0-1.7.15-2.56.45-.79.25-1.24.88-1.37,1.92-.06,1.04-.09,2.1-.09,3.2v3.28c0,4.99.03,10.02.09,15.07.12,4.99.18,10.01.18,15.07s-.76,9.71-2.28,13.61c-1.52,3.83-3.99,6.82-7.4,8.95-3.35,2.13-7.82,3.19-13.42,3.19-8.1,0-14.49-1.94-19.18-5.84-4.63-3.96-6.94-10.14-6.94-18.54v-37.26c.06-.36.06-.67,0-.91-.06-1.16-.67-1.86-1.83-2.1-1.09-.25-2.1-.37-3.01-.37-.43,0-.88.03-1.37.09h-1.37c-.18,0-.4-.12-.64-.36-.06-.25-.09-.58-.09-1,0-.67.4-1,1.19-1,.67,0,1.31.03,1.92.09.61,0,1.22.03,1.83.09,1.4.06,2.77.12,4.11.18h4.02c2.13,0,4.23-.06,6.3-.18,2.13-.12,4.26-.18,6.39-.18.79,0,1.19.36,1.19,1.09,0,.25-.06.55-.19.91-.12.3-.36.45-.73.45h-2.29c-.73-.06-1.49-.09-2.28-.09-.67,0-1.43.19-2.29.55-.85.36-1.34.95-1.46,1.74-.18.97-.24,2.04-.18,3.19.06,1.1.09,2.16.09,3.2,0,5.54-.03,11.08-.09,16.62-.06,5.54-.09,11.08-.09,16.62,0,4.38.46,8.04,1.37,10.96.91,2.92,2.62,5.15,5.11,6.67,2.5,1.46,6.15,2.19,10.96,2.19s8.4-.97,11.14-2.92c2.8-1.95,4.81-4.6,6.03-7.95s1.83-7.15,1.83-11.41c0-6.15-.03-12.3-.09-18.45v-18.45c0-.85-.46-1.46-1.37-1.83-.91-.36-1.73-.54-2.46-.54s-1.46.03-2.2.09c-.73.06-1.49.09-2.28.09-.37,0-.55-.28-.55-.82v-1.28c.06-.36.4-.54,1-.54.85,0,1.74.06,2.65.18.91.06,1.8.09,2.65.09,3.04,0,6.06-.09,9.04-.27.79,0,1.55-.03,2.29-.09.79-.06,1.55-.09,2.28-.09.36,0,.55.18.55.54.06.37.09.67.09.91ZM421.82,309.59c-1.95-5.48-3.9-10.96-5.85-16.44-1.94-5.54-3.89-11.05-5.84-16.53-1.89,5.48-3.8,10.96-5.75,16.44-1.95,5.48-3.87,10.99-5.76,16.53h23.2ZM447.57,335.34c0,.37-.06.7-.18,1.01-.06.24-.27.36-.64.36-.43,0-1.49-.03-3.19-.09-1.64-.06-3.08-.09-4.29-.09h-5.66c-1.83,0-3.68.06-5.57.18-.98.06-1.98.09-3.02.09-.97.06-1.94.09-2.92.09-.3,0-.52-.09-.64-.27-.06-.25-.09-.49-.09-.73l.09-.73c0-.18.06-.36.19-.54.12-.25.3-.37.54-.37h4.48c.55,0,1.16-.12,1.83-.36.73-.25,1.09-.7,1.09-1.37,0-.18-.21-.88-.64-2.1-.43-1.28-.95-2.8-1.55-4.57-.61-1.83-1.25-3.65-1.92-5.48-.67-1.83-1.25-3.44-1.74-4.84-.49-1.46-.82-2.41-1-2.83h-24.93c-.19.54-.55,1.55-1.1,3.01-.54,1.4-1.15,3.01-1.83,4.84-.61,1.83-1.24,3.63-1.92,5.39-.61,1.77-1.13,3.29-1.55,4.57-.37,1.22-.55,1.98-.55,2.29,0,.85.45,1.4,1.37,1.64.91.25,1.68.37,2.29.37h1.64c.49,0,.88-.03,1.19-.09h.64c.36-.06.58-.09.64-.09.37,0,.58.21.64.64.12.43.15.76.09,1-.06.25-.21.4-.45.46h-.64c-1.77,0-3.56-.03-5.39-.09-1.83-.06-3.62-.09-5.39-.09-1.34,0-2.65.03-3.93.09-1.28.06-2.59.09-3.93.09-.55,0-.82-.3-.82-.91,0-.85.43-1.28,1.28-1.28.3,0,.67.03,1.09.09h1.37c.67,0,1.34-.19,2.01-.55.73-.43,1.34-1.16,1.83-2.19.3-.55.91-2.01,1.83-4.38.91-2.38,2.04-5.33,3.38-8.86,1.34-3.59,2.74-7.43,4.2-11.5,1.52-4.14,3.02-8.25,4.48-12.33,1.46-4.08,2.77-7.86,3.93-11.32,1.22-3.47,2.19-6.33,2.92-8.59.73-2.31,1.09-3.68,1.09-4.11,0-.12-.09-.28-.27-.46-.19-.24-.28-.4-.28-.45,0-.25.09-.4.28-.46.61-.12,1.24-.21,1.92-.27.67-.06,1.31-.12,1.92-.18.79-.12,1.58-.21,2.37-.28.8-.12,1.59-.21,2.38-.27l23.65,63.93c.25.61.7,1.09,1.37,1.46.73.3,1.4.45,2.01.45h1.64c.61-.06,1.22-.09,1.83-.09.25,0,.4.15.46.46.06.3.09.54.09.73ZM559.49,335.44c0,.79-.37,1.19-1.09,1.19-2.25,0-4.48-.06-6.67-.18-2.19-.12-4.38-.19-6.57-.19-1.04,0-2.07.03-3.1.1-1.04,0-2.07.03-3.11.09-1.03.06-2.07.15-3.1.27-.97.06-1.98.09-3.01.09-.55,0-.91-.15-1.1-.45-.12-.37-.18-.76-.18-1.19,0-.24.06-.49.18-.73.12-.3.34-.45.64-.45.18-.06.46-.09.82-.09.43,0,.85.03,1.28.09h1.37c.85,0,1.79-.09,2.83-.27,1.09-.19,1.7-.85,1.83-2.01.06-.18.06-.36,0-.54v-56.53h-.55c-2.31,6.27-4.72,12.51-7.21,18.72-2.5,6.15-4.99,12.3-7.49,18.45-.97,2.49-1.98,4.99-3.01,7.49-1.04,2.49-2.07,4.99-3.1,7.49-.43,1.09-.85,2.22-1.28,3.38-.36,1.15-.82,2.25-1.37,3.28-.43.67-1.09,1-2.01,1-.85,0-1.5-.33-1.92-1-.49-.91-.94-1.89-1.37-2.92-.36-1.04-.76-2.04-1.19-3.01-.91-2.13-1.8-4.23-2.65-6.3-.85-2.07-1.7-4.14-2.56-6.21-2.8-6.7-5.6-13.36-8.4-20-2.74-6.7-5.48-13.36-8.22-20v28.4c.06,9.44.09,18.87.09,28.31,0,1.22.52,1.92,1.55,2.1,1.09.18,2.1.27,3.01.27.61,0,1.22-.03,1.83-.09.61-.06,1.22-.09,1.83-.09.3,0,.45.18.45.54,0,.3-.03.73-.09,1.28-.06.54-.3.82-.73.82-1.64,0-3.32-.03-5.02-.09-1.64-.12-3.29-.19-4.93-.19s-3.2.06-4.84.19c-1.58.06-3.17.09-4.75.09-.06-.12-.12-.21-.18-.28,0-.12-.03-.21-.09-.27v-.82c0-.61.12-.94.36-1,.25-.06.58-.09,1-.09.49,0,.95.03,1.37.09h1.28c.91,0,1.89-.12,2.92-.36,1.04-.25,1.59-.95,1.64-2.1.12-.97.15-1.94.09-2.92v-3.01c0-1.95-.03-3.9-.09-5.84v-5.94c0-6.52.03-13,.09-19.45.12-6.46.18-12.91.18-19.36,0-1.16-.54-1.92-1.64-2.29-1.1-.36-2.1-.55-3.02-.55-.54,0-1.09.03-1.64.1-.55.06-1.1.09-1.64.09-.37,0-.61-.19-.73-.55-.12-.36-.18-.67-.18-.91,0-.85.33-1.28,1-1.28,1.58,0,3.19.06,4.84.18,1.64.06,3.26.09,4.84.09,3.11,0,6.21-.09,9.32-.27l21.64,52.05c3.35-8.71,6.85-17.32,10.5-25.85,3.65-8.58,7.03-17.26,10.14-26.02,1.52.06,3.01.12,4.48.18h4.57c1.83,0,3.62-.06,5.39-.18,1.83-.18,3.65-.27,5.48-.27.36,0,.58.18.64.54.06.37.09.67.09.91s-.03.55-.09.91c-.06.37-.28.55-.64.55-.79,0-1.55-.03-2.29-.09-.73-.06-1.46-.09-2.19-.09s-1.64.18-2.74.54c-1.04.3-1.55.91-1.55,1.83v56.17c0,1.4.4,2.28,1.19,2.65.85.3,1.92.45,3.2.45.73,0,1.46-.03,2.19-.09.73-.06,1.5-.09,2.29-.09.49,0,.76.18.82.54.06.37.09.7.09,1.01ZM618.43,335.07c0,.25-.03.58-.09,1-.06.37-.27.55-.64.55-.73,0-1.46-.03-2.19-.09-.67-.06-1.37-.09-2.1-.09-2.99-.19-6.03-.28-9.13-.28-1.34,0-2.68.03-4.02.09-1.34.06-2.68.12-4.02.19-.61.06-1.25.12-1.92.18-.61.06-1.25.09-1.92.09-.49,0-.73-.3-.73-.91,0-.43.03-.82.09-1.19.06-.37.36-.55.91-.55.61,0,1.19.03,1.74.09h1.74c.73,0,1.58-.18,2.56-.54,1.03-.37,1.55-.98,1.55-1.83v-56.72c0-1.03-.4-1.7-1.19-2.01-.79-.36-1.74-.54-2.83-.54-1.04,0-2.01.03-2.92.09-.85,0-1.34-.15-1.46-.46-.06-.12-.09-.4-.09-.82,0-.24.03-.52.09-.82.06-.36.25-.54.55-.54,2.01,0,4.02.06,6.02.18,2.07.12,4.11.18,6.12.18h7.03c1.04,0,2.04-.03,3.01-.09.49-.06.95-.09,1.37-.09.49-.06.94-.09,1.37-.09.67,0,1,.34,1,1,0,.36-.03.7-.09,1s-.34.46-.82.46h-2.19c-.67-.06-1.37-.09-2.1-.09s-1.52.24-2.37.73c-.79.43-1.19,1.07-1.19,1.92v56.72c0,.79.36,1.37,1.09,1.73.73.37,1.46.55,2.19.55h2.29c.79-.06,1.58-.09,2.37-.09.61,0,.91.36.91,1.09Z"/>
      <path class="cls-5" d="M342.48,404.3v-27.67h3.35v24.7h12.87v2.97h-16.21ZM392.26,404.3h-3.51l10.16-27.67h3.46l10.16,27.67h-3.51l-8.27-23.3h-.21l-8.27,23.3ZM393.55,393.49h14.16v2.97h-14.16v-2.97ZM442.33,404.3v-27.67h9.67c1.93,0,3.52.33,4.77,1,1.25.66,2.18,1.54,2.79,2.66.61,1.11.92,2.33.92,3.68,0,1.19-.21,2.17-.64,2.95-.41.77-.96,1.39-1.64,1.84-.68.45-1.41.79-2.21,1v.27c.85.05,1.7.35,2.56.89.85.54,1.57,1.31,2.15,2.32.58,1.01.87,2.24.87,3.7s-.32,2.64-.95,3.74c-.63,1.11-1.63,1.99-2.99,2.64-1.36.65-3.13.97-5.31.97h-10ZM445.68,401.33h6.65c2.19,0,3.74-.42,4.66-1.27.93-.85,1.39-1.89,1.39-3.11,0-.93-.24-1.8-.72-2.6-.48-.8-1.16-1.44-2.04-1.92-.89-.49-1.93-.73-3.13-.73h-6.81v9.62ZM445.68,388.79h6.22c1.01,0,1.92-.2,2.73-.59.82-.4,1.47-.96,1.95-1.68.49-.72.73-1.57.73-2.54,0-1.21-.42-2.25-1.27-3.09-.84-.85-2.18-1.28-4.03-1.28h-6.32v9.19Z"/>
    </g>
  </g>
</svg>